<?xml version="1.0" encoding="utf-8" standalone="no"?>
<!DOCTYPE svg PUBLIC "-//W3C//DTD SVG 1.1//EN"
  "http://www.w3.org/Graphics/SVG/1.1/DTD/svg11.dtd">
<svg xmlns:xlink="http://www.w3.org/1999/xlink" width="360pt" height="360pt" viewBox="0 0 360 360" xmlns="http://www.w3.org/2000/svg" version="1.1">
 <metadata>
  <rdf:RDF xmlns:dc="http://purl.org/dc/elements/1.1/" xmlns:cc="http://creativecommons.org/ns#" xmlns:rdf="http://www.w3.org/1999/02/22-rdf-syntax-ns#">
   <cc:Work>
    <dc:type rdf:resource="http://purl.org/dc/dcmitype/StillImage"/>
    <dc:date>2023-08-02T10:01:07.059750</dc:date>
    <dc:format>image/svg+xml</dc:format>
    <dc:creator>
     <cc:Agent>
      <dc:title>Matplotlib v3.6.2, https://matplotlib.org/</dc:title>
     </cc:Agent>
    </dc:creator>
   </cc:Work>
  </rdf:RDF>
 </metadata>
 <defs>
  <style type="text/css">*{stroke-linejoin: round; stroke-linecap: butt}</style>
 </defs>
 <g id="figure_1">
  <g id="patch_1">
   <path d="M 0 360 
L 360 360 
L 360 0 
L 0 0 
z
" style="fill: #ffffff"/>
  </g>
  <g id="patch_2">
   <path d="M 10.8 349.2 
L 349.2 349.2 
L 349.2 10.8 
L 10.8 10.8 
z
" style="fill: #ffffff"/>
  </g>
  <g id="axes_1">
   <g id="Line3DCollection_1">
    <path d="M 214.558491 194.588911 
L 205.311297 181.427781 
" clip-path="url(#p2137c8b5e5)" style="fill: none; stroke: #d3d3d3"/>
   </g>
   <g id="Poly3DCollection_1">
    <path d="M 205.391019 137.054057 
L 296.083678 151.528651 
L 214.678912 148.285214 
z
" clip-path="url(#p2137c8b5e5)" style="fill: #d3eecd; fill-opacity: 0.5"/>
   </g>
   <g id="Line3DCollection_2">
    <path d="M 214.558491 194.588911 
L 161.293707 202.145827 
" clip-path="url(#p2137c8b5e5)" style="fill: none; stroke: #d3d3d3"/>
   </g>
   <g id="Line3DCollection_3">
    <path d="M 161.293707 202.145827 
L 115.909461 208.58367 
" clip-path="url(#p2137c8b5e5)" style="fill: none; stroke: #d3d3d3"/>
   </g>
   <g id="Line3DCollection_4">
    <path d="M 115.909461 208.58367 
L 78.698909 194.917597 
" clip-path="url(#p2137c8b5e5)" style="fill: none; stroke: #d3d3d3"/>
   </g>
   <g id="Line3DCollection_5">
    <path d="M 161.293707 202.145827 
L 189.391455 218.553065 
" clip-path="url(#p2137c8b5e5)" style="fill: none; stroke: #d3d3d3"/>
   </g>
   <g id="Line3DCollection_6">
    <path d="M 189.391455 218.553065 
L 115.909461 208.58367 
" clip-path="url(#p2137c8b5e5)" style="fill: none; stroke: #d3d3d3"/>
   </g>
   <g id="Line3DCollection_7">
    <path d="M 189.391455 218.553065 
L 78.698909 194.917597 
" clip-path="url(#p2137c8b5e5)" style="fill: none; stroke: #d3d3d3"/>
   </g>
   <g id="Path3DCollection_1">
    <path d="M 205.311297 183.927781 
C 205.974305 183.927781 206.610247 183.664365 207.079064 183.195548 
C 207.547881 182.726731 207.811297 182.090789 207.811297 181.427781 
C 207.811297 180.764773 207.547881 180.128831 207.079064 179.660014 
C 206.610247 179.191197 205.974305 178.927781 205.311297 178.927781 
C 204.648289 178.927781 204.012347 179.191197 203.54353 179.660014 
C 203.074713 180.128831 202.811297 180.764773 202.811297 181.427781 
C 202.811297 182.090789 203.074713 182.726731 203.54353 183.195548 
C 204.012347 183.664365 204.648289 183.927781 205.311297 183.927781 
z
" clip-path="url(#p2137c8b5e5)" style="fill: #ffffff; stroke: #000000"/>
    <path d="M 214.558491 197.088911 
C 215.221499 197.088911 215.857441 196.825495 216.326258 196.356678 
C 216.795075 195.88786 217.058491 195.251918 217.058491 194.588911 
C 217.058491 193.925903 216.795075 193.289961 216.326258 192.821144 
C 215.857441 192.352326 215.221499 192.088911 214.558491 192.088911 
C 213.895483 192.088911 213.259541 192.352326 212.790724 192.821144 
C 212.321907 193.289961 212.058491 193.925903 212.058491 194.588911 
C 212.058491 195.251918 212.321907 195.88786 212.790724 196.356678 
C 213.259541 196.825495 213.895483 197.088911 214.558491 197.088911 
z
" clip-path="url(#p2137c8b5e5)" style="fill: #ffffff; stroke: #000000"/>
    <path d="M 78.698909 197.417597 
C 79.361917 197.417597 79.997859 197.154181 80.466676 196.685364 
C 80.935494 196.216547 81.198909 195.580605 81.198909 194.917597 
C 81.198909 194.25459 80.935494 193.618648 80.466676 193.14983 
C 79.997859 192.681013 79.361917 192.417597 78.698909 192.417597 
C 78.035902 192.417597 77.39996 192.681013 76.931142 193.14983 
C 76.462325 193.618648 76.198909 194.25459 76.198909 194.917597 
C 76.198909 195.580605 76.462325 196.216547 76.931142 196.685364 
C 77.39996 197.154181 78.035902 197.417597 78.698909 197.417597 
z
" clip-path="url(#p2137c8b5e5)" style="fill: #ffffff; stroke: #000000"/>
    <path d="M 295.632158 200.888866 
C 296.295166 200.888866 296.931108 200.62545 297.399925 200.156633 
C 297.868742 199.687816 298.132158 199.051874 298.132158 198.388866 
C 298.132158 197.725858 297.868742 197.089916 297.399925 196.621099 
C 296.931108 196.152282 296.295166 195.888866 295.632158 195.888866 
C 294.96915 195.888866 294.333208 196.152282 293.864391 196.621099 
C 293.395574 197.089916 293.132158 197.725858 293.132158 198.388866 
C 293.132158 199.051874 293.395574 199.687816 293.864391 200.156633 
C 294.333208 200.62545 294.96915 200.888866 295.632158 200.888866 
z
" clip-path="url(#p2137c8b5e5)" style="fill: #ffffff; stroke: #000000"/>
    <path d="M 161.293707 204.645827 
C 161.956714 204.645827 162.592656 204.382412 163.061474 203.913594 
C 163.530291 203.444777 163.793707 202.808835 163.793707 202.145827 
C 163.793707 201.48282 163.530291 200.846878 163.061474 200.37806 
C 162.592656 199.909243 161.956714 199.645827 161.293707 199.645827 
C 160.630699 199.645827 159.994757 199.909243 159.52594 200.37806 
C 159.057122 200.846878 158.793707 201.48282 158.793707 202.145827 
C 158.793707 202.808835 159.057122 203.444777 159.52594 203.913594 
C 159.994757 204.382412 160.630699 204.645827 161.293707 204.645827 
z
" clip-path="url(#p2137c8b5e5)" style="fill: #ffffff; stroke: #000000"/>
    <path d="M 115.909461 211.08367 
C 116.572469 211.08367 117.208411 210.820254 117.677228 210.351437 
C 118.146045 209.88262 118.409461 209.246678 118.409461 208.58367 
C 118.409461 207.920662 118.146045 207.28472 117.677228 206.815903 
C 117.208411 206.347086 116.572469 206.08367 115.909461 206.08367 
C 115.246453 206.08367 114.610511 206.347086 114.141694 206.815903 
C 113.672877 207.28472 113.409461 207.920662 113.409461 208.58367 
C 113.409461 209.246678 113.672877 209.88262 114.141694 210.351437 
C 114.610511 210.820254 115.246453 211.08367 115.909461 211.08367 
z
" clip-path="url(#p2137c8b5e5)" style="fill: #ffffff; stroke: #000000"/>
    <path d="M 189.391455 221.053065 
C 190.054463 221.053065 190.690405 220.78965 191.159222 220.320832 
C 191.628039 219.852015 191.891455 219.216073 191.891455 218.553065 
C 191.891455 217.890058 191.628039 217.254116 191.159222 216.785298 
C 190.690405 216.316481 190.054463 216.053065 189.391455 216.053065 
C 188.728447 216.053065 188.092506 216.316481 187.623688 216.785298 
C 187.154871 217.254116 186.891455 217.890058 186.891455 218.553065 
C 186.891455 219.216073 187.154871 219.852015 187.623688 220.320832 
C 188.092506 220.78965 188.728447 221.053065 189.391455 221.053065 
z
" clip-path="url(#p2137c8b5e5)" style="fill: #ffffff; stroke: #000000"/>
   </g>
   <g id="Poly3DCollection_2">
    <path d="M 161.197921 154.735707 
L 189.412314 168.745093 
L 115.621164 160.231972 
z
" clip-path="url(#p2137c8b5e5)" style="fill: #d3d3d3; fill-opacity: 0.5"/>
   </g>
   <g id="Path3DCollection_2">
    <path d="M 205.391019 139.554057 
C 206.054027 139.554057 206.689969 139.290641 207.158786 138.821824 
C 207.627603 138.353007 207.891019 137.717065 207.891019 137.054057 
C 207.891019 136.391049 207.627603 135.755108 207.158786 135.28629 
C 206.689969 134.817473 206.054027 134.554057 205.391019 134.554057 
C 204.728011 134.554057 204.09207 134.817473 203.623252 135.28629 
C 203.154435 135.755108 202.891019 136.391049 202.891019 137.054057 
C 202.891019 137.717065 203.154435 138.353007 203.623252 138.821824 
C 204.09207 139.290641 204.728011 139.554057 205.391019 139.554057 
z
" clip-path="url(#p2137c8b5e5)" style="fill: #ffffff; stroke: #000000"/>
    <path d="M 214.678912 150.785214 
C 215.34192 150.785214 215.977862 150.521798 216.446679 150.052981 
C 216.915496 149.584163 217.178912 148.948221 217.178912 148.285214 
C 217.178912 147.622206 216.915496 146.986264 216.446679 146.517447 
C 215.977862 146.048629 215.34192 145.785214 214.678912 145.785214 
C 214.015904 145.785214 213.379962 146.048629 212.911145 146.517447 
C 212.442328 146.986264 212.178912 147.622206 212.178912 148.285214 
C 212.178912 148.948221 212.442328 149.584163 212.911145 150.052981 
C 213.379962 150.521798 214.015904 150.785214 214.678912 150.785214 
z
" clip-path="url(#p2137c8b5e5)" style="fill: #ffffff; stroke: #000000"/>
    <path d="M 78.273268 151.06575 
C 78.936276 151.06575 79.572218 150.802334 80.041035 150.333517 
C 80.509852 149.8647 80.773268 149.228758 80.773268 148.56575 
C 80.773268 147.902742 80.509852 147.2668 80.041035 146.797983 
C 79.572218 146.329166 78.936276 146.06575 78.273268 146.06575 
C 77.61026 146.06575 76.974318 146.329166 76.505501 146.797983 
C 76.036684 147.2668 75.773268 147.902742 75.773268 148.56575 
C 75.773268 149.228758 76.036684 149.8647 76.505501 150.333517 
C 76.974318 150.802334 77.61026 151.06575 78.273268 151.06575 
z
" clip-path="url(#p2137c8b5e5)" style="fill: #ffffff; stroke: #000000"/>
    <path d="M 296.083678 154.028651 
C 296.746686 154.028651 297.382628 153.765236 297.851445 153.296418 
C 298.320262 152.827601 298.583678 152.191659 298.583678 151.528651 
C 298.583678 150.865644 298.320262 150.229702 297.851445 149.760884 
C 297.382628 149.292067 296.746686 149.028651 296.083678 149.028651 
C 295.42067 149.028651 294.784728 149.292067 294.315911 149.760884 
C 293.847094 150.229702 293.583678 150.865644 293.583678 151.528651 
C 293.583678 152.191659 293.847094 152.827601 294.315911 153.296418 
C 294.784728 153.765236 295.42067 154.028651 296.083678 154.028651 
z
" clip-path="url(#p2137c8b5e5)" style="fill: #ffffff; stroke: #000000"/>
    <path d="M 161.197921 157.235707 
C 161.860929 157.235707 162.496871 156.972291 162.965688 156.503474 
C 163.434505 156.034656 163.697921 155.398715 163.697921 154.735707 
C 163.697921 154.072699 163.434505 153.436757 162.965688 152.96794 
C 162.496871 152.499123 161.860929 152.235707 161.197921 152.235707 
C 160.534913 152.235707 159.898971 152.499123 159.430154 152.96794 
C 158.961337 153.436757 158.697921 154.072699 158.697921 154.735707 
C 158.697921 155.398715 158.961337 156.034656 159.430154 156.503474 
C 159.898971 156.972291 160.534913 157.235707 161.197921 157.235707 
z
" clip-path="url(#p2137c8b5e5)" style="fill: #ffffff; stroke: #000000"/>
    <path d="M 115.621164 162.731972 
C 116.284172 162.731972 116.920113 162.468556 117.388931 161.999739 
C 117.857748 161.530922 118.121164 160.89498 118.121164 160.231972 
C 118.121164 159.568964 117.857748 158.933022 117.388931 158.464205 
C 116.920113 157.995388 116.284172 157.731972 115.621164 157.731972 
C 114.958156 157.731972 114.322214 157.995388 113.853397 158.464205 
C 113.38458 158.933022 113.121164 159.568964 113.121164 160.231972 
C 113.121164 160.89498 113.38458 161.530922 113.853397 161.999739 
C 114.322214 162.468556 114.958156 162.731972 115.621164 162.731972 
z
" clip-path="url(#p2137c8b5e5)" style="fill: #ffffff; stroke: #000000"/>
    <path d="M 189.412314 171.245093 
C 190.075322 171.245093 190.711264 170.981677 191.180081 170.51286 
C 191.648898 170.044043 191.912314 169.408101 191.912314 168.745093 
C 191.912314 168.082085 191.648898 167.446143 191.180081 166.977326 
C 190.711264 166.508509 190.075322 166.245093 189.412314 166.245093 
C 188.749306 166.245093 188.113364 166.508509 187.644547 166.977326 
C 187.17573 167.446143 186.912314 168.082085 186.912314 168.745093 
C 186.912314 169.408101 187.17573 170.044043 187.644547 170.51286 
C 188.113364 170.981677 188.749306 171.245093 189.412314 171.245093 
z
" clip-path="url(#p2137c8b5e5)" style="fill: #ffffff; stroke: #000000"/>
   </g>
   <g id="Poly3DCollection_3">
    <path d="M 161.101344 106.933824 
L 189.433354 118.504018 
L 115.330436 111.472534 
L 77.84419 101.839705 
z
" clip-path="url(#p2137c8b5e5)" style="fill: #8ace88; fill-opacity: 0.5"/>
   </g>
   <g id="Line3DCollection_8">
    <path d="M 214.558491 194.588911 
L 214.800304 101.608108 
" clip-path="url(#p2137c8b5e5)" style="fill: none; stroke-dasharray: 1,1.65; stroke-dashoffset: 0; stroke: #808080; stroke-opacity: 0.4"/>
    <path d="M 205.311297 181.427781 
L 205.471357 92.337854 
" clip-path="url(#p2137c8b5e5)" style="fill: none; stroke-dasharray: 1,1.65; stroke-dashoffset: 0; stroke: #808080; stroke-opacity: 0.4"/>
    <path d="M 295.632158 198.388866 
L 296.538884 104.285853 
" clip-path="url(#p2137c8b5e5)" style="fill: none; stroke-dasharray: 1,1.65; stroke-dashoffset: 0; stroke: #808080; stroke-opacity: 0.4"/>
    <path d="M 161.293707 202.145827 
L 161.101344 106.933824 
" clip-path="url(#p2137c8b5e5)" style="fill: none; stroke-dasharray: 1,1.65; stroke-dashoffset: 0; stroke: #808080; stroke-opacity: 0.4"/>
    <path d="M 189.391455 218.553065 
L 189.433354 118.504018 
" clip-path="url(#p2137c8b5e5)" style="fill: none; stroke-dasharray: 1,1.65; stroke-dashoffset: 0; stroke: #808080; stroke-opacity: 0.4"/>
    <path d="M 115.909461 208.58367 
L 115.330436 111.472534 
" clip-path="url(#p2137c8b5e5)" style="fill: none; stroke-dasharray: 1,1.65; stroke-dashoffset: 0; stroke: #808080; stroke-opacity: 0.4"/>
    <path d="M 78.698909 194.917597 
L 77.84419 101.839705 
" clip-path="url(#p2137c8b5e5)" style="fill: none; stroke-dasharray: 1,1.65; stroke-dashoffset: 0; stroke: #808080; stroke-opacity: 0.4"/>
   </g>
   <g id="Path3DCollection_3">
    <path d="M 205.471357 94.837854 
C 206.134364 94.837854 206.770306 94.574439 207.239124 94.105621 
C 207.707941 93.636804 207.971357 93.000862 207.971357 92.337854 
C 207.971357 91.674847 207.707941 91.038905 207.239124 90.570087 
C 206.770306 90.10127 206.134364 89.837854 205.471357 89.837854 
C 204.808349 89.837854 204.172407 90.10127 203.70359 90.570087 
C 203.234772 91.038905 202.971357 91.674847 202.971357 92.337854 
C 202.971357 93.000862 203.234772 93.636804 203.70359 94.105621 
C 204.172407 94.574439 204.808349 94.837854 205.471357 94.837854 
z
" clip-path="url(#p2137c8b5e5)" style="fill: #ffffff; stroke: #000000"/>
    <path d="M 214.800304 104.108108 
C 215.463312 104.108108 216.099254 103.844692 216.568071 103.375875 
C 217.036888 102.907058 217.300304 102.271116 217.300304 101.608108 
C 217.300304 100.9451 217.036888 100.309158 216.568071 99.840341 
C 216.099254 99.371524 215.463312 99.108108 214.800304 99.108108 
C 214.137296 99.108108 213.501354 99.371524 213.032537 99.840341 
C 212.56372 100.309158 212.300304 100.9451 212.300304 101.608108 
C 212.300304 102.271116 212.56372 102.907058 213.032537 103.375875 
C 213.501354 103.844692 214.137296 104.108108 214.800304 104.108108 
z
" clip-path="url(#p2137c8b5e5)" style="fill: #ffffff; stroke: #000000"/>
    <path d="M 77.84419 104.339705 
C 78.507198 104.339705 79.14314 104.07629 79.611957 103.607472 
C 80.080774 103.138655 80.34419 102.502713 80.34419 101.839705 
C 80.34419 101.176698 80.080774 100.540756 79.611957 100.071938 
C 79.14314 99.603121 78.507198 99.339705 77.84419 99.339705 
C 77.181182 99.339705 76.54524 99.603121 76.076423 100.071938 
C 75.607606 100.540756 75.34419 101.176698 75.34419 101.839705 
C 75.34419 102.502713 75.607606 103.138655 76.076423 103.607472 
C 76.54524 104.07629 77.181182 104.339705 77.84419 104.339705 
z
" clip-path="url(#p2137c8b5e5)" style="fill: #ffffff; stroke: #000000"/>
    <path d="M 296.538884 106.785853 
C 297.201892 106.785853 297.837834 106.522438 298.306651 106.05362 
C 298.775469 105.584803 299.038884 104.948861 299.038884 104.285853 
C 299.038884 103.622846 298.775469 102.986904 298.306651 102.518086 
C 297.837834 102.049269 297.201892 101.785853 296.538884 101.785853 
C 295.875877 101.785853 295.239935 102.049269 294.771117 102.518086 
C 294.3023 102.986904 294.038884 103.622846 294.038884 104.285853 
C 294.038884 104.948861 294.3023 105.584803 294.771117 106.05362 
C 295.239935 106.522438 295.875877 106.785853 296.538884 106.785853 
z
" clip-path="url(#p2137c8b5e5)" style="fill: #ffffff; stroke: #000000"/>
    <path d="M 161.101344 109.433824 
C 161.764352 109.433824 162.400294 109.170408 162.869111 108.701591 
C 163.337928 108.232774 163.601344 107.596832 163.601344 106.933824 
C 163.601344 106.270816 163.337928 105.634874 162.869111 105.166057 
C 162.400294 104.69724 161.764352 104.433824 161.101344 104.433824 
C 160.438336 104.433824 159.802394 104.69724 159.333577 105.166057 
C 158.86476 105.634874 158.601344 106.270816 158.601344 106.933824 
C 158.601344 107.596832 158.86476 108.232774 159.333577 108.701591 
C 159.802394 109.170408 160.438336 109.433824 161.101344 109.433824 
z
" clip-path="url(#p2137c8b5e5)" style="fill: #ffffff; stroke: #000000"/>
    <path d="M 115.330436 113.972534 
C 115.993443 113.972534 116.629385 113.709118 117.098203 113.240301 
C 117.56702 112.771484 117.830436 112.135542 117.830436 111.472534 
C 117.830436 110.809526 117.56702 110.173584 117.098203 109.704767 
C 116.629385 109.23595 115.993443 108.972534 115.330436 108.972534 
C 114.667428 108.972534 114.031486 109.23595 113.562669 109.704767 
C 113.093851 110.173584 112.830436 110.809526 112.830436 111.472534 
C 112.830436 112.135542 113.093851 112.771484 113.562669 113.240301 
C 114.031486 113.709118 114.667428 113.972534 115.330436 113.972534 
z
" clip-path="url(#p2137c8b5e5)" style="fill: #ffffff; stroke: #000000"/>
    <path d="M 189.433354 121.004018 
C 190.096362 121.004018 190.732304 120.740602 191.201121 120.271785 
C 191.669938 119.802968 191.933354 119.167026 191.933354 118.504018 
C 191.933354 117.841011 191.669938 117.205069 191.201121 116.736251 
C 190.732304 116.267434 190.096362 116.004018 189.433354 116.004018 
C 188.770346 116.004018 188.134404 116.267434 187.665587 116.736251 
C 187.19677 117.205069 186.933354 117.841011 186.933354 118.504018 
C 186.933354 119.167026 187.19677 119.802968 187.665587 120.271785 
C 188.134404 120.740602 188.770346 121.004018 189.433354 121.004018 
z
" clip-path="url(#p2137c8b5e5)" style="fill: #ffffff; stroke: #000000"/>
   </g>
   <g id="Poly3DCollection_4">
    <path d="M 196.485034 175.821793 
L 38.626456 196.683787 
L 170.607466 225.832008 
L 332.560104 201.031773 
z
" clip-path="url(#p2137c8b5e5)" style="fill: #626262; fill-opacity: 0.1"/>
   </g>
   <g id="Poly3DCollection_5">
    <path d="M 196.529955 132.271309 
L 38.036347 150.073248 
L 170.545683 174.962162 
L 333.166864 153.784684 
z
" clip-path="url(#p2137c8b5e5)" style="fill: #626262; fill-opacity: 0.1"/>
   </g>
   <g id="Poly3DCollection_6">
    <path d="M 196.575216 88.39112 
L 37.441447 103.084256 
L 170.483351 123.640221 
L 333.77862 106.148565 
z
" clip-path="url(#p2137c8b5e5)" style="fill: #626262; fill-opacity: 0.1"/>
   </g>
  </g>
 </g>
 <defs>
  <clipPath id="p2137c8b5e5">
   <rect x="10.8" y="10.8" width="338.4" height="338.4"/>
  </clipPath>
 </defs>
</svg>
