<?xml version="1.0" encoding="utf-8" standalone="no"?>
<!DOCTYPE svg PUBLIC "-//W3C//DTD SVG 1.1//EN"
  "http://www.w3.org/Graphics/SVG/1.1/DTD/svg11.dtd">
<svg xmlns:xlink="http://www.w3.org/1999/xlink" width="360pt" height="144pt" viewBox="0 0 360 144" xmlns="http://www.w3.org/2000/svg" version="1.1">
 <metadata>
  <rdf:RDF xmlns:dc="http://purl.org/dc/elements/1.1/" xmlns:cc="http://creativecommons.org/ns#" xmlns:rdf="http://www.w3.org/1999/02/22-rdf-syntax-ns#">
   <cc:Work>
    <dc:type rdf:resource="http://purl.org/dc/dcmitype/StillImage"/>
    <dc:date>2023-08-02T09:55:33.003601</dc:date>
    <dc:format>image/svg+xml</dc:format>
    <dc:creator>
     <cc:Agent>
      <dc:title>Matplotlib v3.6.2, https://matplotlib.org/</dc:title>
     </cc:Agent>
    </dc:creator>
   </cc:Work>
  </rdf:RDF>
 </metadata>
 <defs>
  <style type="text/css">*{stroke-linejoin: round; stroke-linecap: butt}</style>
 </defs>
 <g id="figure_1">
  <g id="patch_1">
   <path d="M 0 144 
L 360 144 
L 360 0 
L 0 0 
z
" style="fill: #ffffff"/>
  </g>
  <g id="axes_1">
   <g id="patch_2">
    <path d="M 224.385275 72.718973 
L 273.390866 26.901818 
L 299.789256 72.721236 
L 273.389401 118.538182 
z
" clip-path="url(#pa7066edc85)" style="fill: #084a91; opacity: 0.4"/>
   </g>
   <g id="patch_3">
    <path d="M 69.210744 109.317154 
L 69.210858 36.123515 
L 131.872442 72.719111 
z
" clip-path="url(#pa7066edc85)" style="fill: #6aaed6; opacity: 0.4"/>
   </g>
   <g id="patch_4">
    <path d="M 224.385275 72.718973 
L 273.390866 26.901818 
L 299.789256 72.721236 
z
" clip-path="url(#pa7066edc85)" style="fill: #6aaed6; opacity: 0.4"/>
   </g>
   <g id="patch_5">
    <path d="M 224.385275 72.718973 
L 273.390866 26.901818 
L 273.389401 118.538182 
z
" clip-path="url(#pa7066edc85)" style="fill: #6aaed6; opacity: 0.4"/>
   </g>
   <g id="patch_6">
    <path d="M 224.385275 72.718973 
L 299.789256 72.721236 
L 273.389401 118.538182 
z
" clip-path="url(#pa7066edc85)" style="fill: #6aaed6; opacity: 0.4"/>
   </g>
   <g id="patch_7">
    <path d="M 273.389401 118.538182 
L 273.390866 26.901818 
L 299.789256 72.721236 
z
" clip-path="url(#pa7066edc85)" style="fill: #6aaed6; opacity: 0.4"/>
   </g>
   <g id="line2d_1">
    <path d="M 131.872442 72.719111 
L 69.210744 109.317154 
" clip-path="url(#pa7066edc85)" style="fill: none; stroke: #000000; stroke-width: 1.5; stroke-linecap: square"/>
   </g>
   <g id="line2d_2">
    <path d="M 131.872442 72.719111 
L 69.210858 36.123515 
" clip-path="url(#pa7066edc85)" style="fill: none; stroke: #000000; stroke-width: 1.5; stroke-linecap: square"/>
   </g>
   <g id="line2d_3">
    <path d="M 69.210744 109.317154 
L 69.210858 36.123515 
" clip-path="url(#pa7066edc85)" style="fill: none; stroke: #000000; stroke-width: 1.5; stroke-linecap: square"/>
   </g>
   <g id="line2d_4">
    <path d="M 224.385275 72.718973 
L 273.390866 26.901818 
" clip-path="url(#pa7066edc85)" style="fill: none; stroke: #000000; stroke-width: 1.5; stroke-linecap: square"/>
   </g>
   <g id="line2d_5">
    <path d="M 224.385275 72.718973 
L 299.789256 72.721236 
" clip-path="url(#pa7066edc85)" style="fill: none; stroke: #000000; stroke-width: 1.5; stroke-linecap: square"/>
   </g>
   <g id="line2d_6">
    <path d="M 224.385275 72.718973 
L 273.389401 118.538182 
" clip-path="url(#pa7066edc85)" style="fill: none; stroke: #000000; stroke-width: 1.5; stroke-linecap: square"/>
   </g>
   <g id="line2d_7">
    <path d="M 273.390866 26.901818 
L 299.789256 72.721236 
" clip-path="url(#pa7066edc85)" style="fill: none; stroke: #000000; stroke-width: 1.5; stroke-linecap: square"/>
   </g>
   <g id="line2d_8">
    <path d="M 273.390866 26.901818 
L 273.389401 118.538182 
" clip-path="url(#pa7066edc85)" style="fill: none; stroke: #000000; stroke-width: 1.5; stroke-linecap: square"/>
   </g>
   <g id="line2d_9">
    <path d="M 299.789256 72.721236 
L 273.389401 118.538182 
" clip-path="url(#pa7066edc85)" style="fill: none; stroke: #000000; stroke-width: 1.5; stroke-linecap: square"/>
   </g>
   <g id="line2d_10">
    <path d="M 131.872442 72.719111 
L 224.385275 72.718973 
" clip-path="url(#pa7066edc85)" style="fill: none; stroke: #000000; stroke-width: 1.5; stroke-linecap: square"/>
   </g>
   <g id="PathCollection_1">
    <path d="M 131.872442 80.219111 
C 133.861465 80.219111 135.769291 79.428864 137.175743 78.022412 
C 138.582194 76.61596 139.372442 74.708135 139.372442 72.719111 
C 139.372442 70.730088 138.582194 68.822262 137.175743 67.415811 
C 135.769291 66.009359 133.861465 65.219111 131.872442 65.219111 
C 129.883418 65.219111 127.975593 66.009359 126.569141 67.415811 
C 125.162689 68.822262 124.372442 70.730088 124.372442 72.719111 
C 124.372442 74.708135 125.162689 76.61596 126.569141 78.022412 
C 127.975593 79.428864 129.883418 80.219111 131.872442 80.219111 
z
" clip-path="url(#pa7066edc85)" style="fill: #ffffff; stroke: #000000"/>
    <path d="M 69.210744 116.817154 
C 71.199767 116.817154 73.107593 116.026907 74.514045 114.620455 
C 75.920496 113.214003 76.710744 111.306178 76.710744 109.317154 
C 76.710744 107.328131 75.920496 105.420305 74.514045 104.013854 
C 73.107593 102.607402 71.199767 101.817154 69.210744 101.817154 
C 67.221721 101.817154 65.313895 102.607402 63.907443 104.013854 
C 62.500991 105.420305 61.710744 107.328131 61.710744 109.317154 
C 61.710744 111.306178 62.500991 113.214003 63.907443 114.620455 
C 65.313895 116.026907 67.221721 116.817154 69.210744 116.817154 
z
" clip-path="url(#pa7066edc85)" style="fill: #ffffff; stroke: #000000"/>
    <path d="M 69.210858 43.623515 
C 71.199882 43.623515 73.107707 42.833267 74.514159 41.426815 
C 75.920611 40.020364 76.710858 38.112538 76.710858 36.123515 
C 76.710858 34.134491 75.920611 32.226666 74.514159 30.820214 
C 73.107707 29.413762 71.199882 28.623515 69.210858 28.623515 
C 67.221835 28.623515 65.314009 29.413762 63.907557 30.820214 
C 62.501106 32.226666 61.710858 34.134491 61.710858 36.123515 
C 61.710858 38.112538 62.501106 40.020364 63.907557 41.426815 
C 65.314009 42.833267 67.221835 43.623515 69.210858 43.623515 
z
" clip-path="url(#pa7066edc85)" style="fill: #ffffff; stroke: #000000"/>
    <path d="M 224.385275 80.218973 
C 226.374299 80.218973 228.282124 79.428726 229.688576 78.022274 
C 231.095028 76.615822 231.885275 74.707996 231.885275 72.718973 
C 231.885275 70.72995 231.095028 68.822124 229.688576 67.415672 
C 228.282124 66.00922 226.374299 65.218973 224.385275 65.218973 
C 222.396252 65.218973 220.488426 66.00922 219.081975 67.415672 
C 217.675523 68.822124 216.885275 70.72995 216.885275 72.718973 
C 216.885275 74.707996 217.675523 76.615822 219.081975 78.022274 
C 220.488426 79.428726 222.396252 80.218973 224.385275 80.218973 
z
" clip-path="url(#pa7066edc85)" style="fill: #ffffff; stroke: #000000"/>
    <path d="M 273.390866 34.401818 
C 275.379889 34.401818 277.287715 33.611571 278.694167 32.205119 
C 280.100618 30.798667 280.890866 28.890841 280.890866 26.901818 
C 280.890866 24.912795 280.100618 23.004969 278.694167 21.598517 
C 277.287715 20.192065 275.379889 19.401818 273.390866 19.401818 
C 271.401843 19.401818 269.494017 20.192065 268.087565 21.598517 
C 266.681113 23.004969 265.890866 24.912795 265.890866 26.901818 
C 265.890866 28.890841 266.681113 30.798667 268.087565 32.205119 
C 269.494017 33.611571 271.401843 34.401818 273.390866 34.401818 
z
" clip-path="url(#pa7066edc85)" style="fill: #ffffff; stroke: #000000"/>
    <path d="M 299.789256 80.221236 
C 301.778279 80.221236 303.686105 79.430989 305.092557 78.024537 
C 306.499009 76.618085 307.289256 74.71026 307.289256 72.721236 
C 307.289256 70.732213 306.499009 68.824387 305.092557 67.417936 
C 303.686105 66.011484 301.778279 65.221236 299.789256 65.221236 
C 297.800233 65.221236 295.892407 66.011484 294.485955 67.417936 
C 293.079504 68.824387 292.289256 70.732213 292.289256 72.721236 
C 292.289256 74.71026 293.079504 76.618085 294.485955 78.024537 
C 295.892407 79.430989 297.800233 80.221236 299.789256 80.221236 
z
" clip-path="url(#pa7066edc85)" style="fill: #ffffff; stroke: #000000"/>
    <path d="M 273.389401 126.038182 
C 275.378425 126.038182 277.28625 125.247935 278.692702 123.841483 
C 280.099154 122.435031 280.889401 120.527205 280.889401 118.538182 
C 280.889401 116.549159 280.099154 114.641333 278.692702 113.234881 
C 277.28625 111.828429 275.378425 111.038182 273.389401 111.038182 
C 271.400378 111.038182 269.492552 111.828429 268.086101 113.234881 
C 266.679649 114.641333 265.889401 116.549159 265.889401 118.538182 
C 265.889401 120.527205 266.679649 122.435031 268.086101 123.841483 
C 269.492552 125.247935 271.400378 126.038182 273.389401 126.038182 
z
" clip-path="url(#pa7066edc85)" style="fill: #ffffff; stroke: #000000"/>
   </g>
  </g>
 </g>
 <defs>
  <clipPath id="pa7066edc85">
   <rect x="45" y="17.28" width="279" height="110.88"/>
  </clipPath>
 </defs>
</svg>
